<mxfile host="app.diagrams.net" modified="2023-04-17T06:29:58.444Z" agent="Mozilla/5.0 (Windows NT 10.0; Win64; x64) AppleWebKit/537.36 (KHTML, like Gecko) Chrome/111.0.0.0 Safari/537.36" etag="rSz8tTOLA9hbCy2shhTT" version="21.1.1" type="github">
  <diagram name="第 1 页" id="F1F1tczmCz8_vwdtoLMD">
    <mxGraphModel dx="2261" dy="700" grid="1" gridSize="10" guides="1" tooltips="1" connect="1" arrows="1" fold="1" page="1" pageScale="1" pageWidth="827" pageHeight="1169" math="0" shadow="0">
      <root>
        <mxCell id="0" />
        <mxCell id="1" parent="0" />
        <mxCell id="EhgFYe17gosKgeHCHdaY-163" value="" style="rounded=0;whiteSpace=wrap;html=1;dashed=1;" parent="1" vertex="1">
          <mxGeometry x="511" y="710" width="242" height="370" as="geometry" />
        </mxCell>
        <mxCell id="EhgFYe17gosKgeHCHdaY-107" value="" style="rounded=0;whiteSpace=wrap;html=1;dashed=1;" parent="1" vertex="1">
          <mxGeometry x="40" y="713" width="360" height="370" as="geometry" />
        </mxCell>
        <mxCell id="EhgFYe17gosKgeHCHdaY-90" value="" style="rounded=0;whiteSpace=wrap;html=1;dashed=1;" parent="1" vertex="1">
          <mxGeometry x="-160" y="935" width="160" height="148" as="geometry" />
        </mxCell>
        <mxCell id="EhgFYe17gosKgeHCHdaY-93" value="" style="rounded=0;whiteSpace=wrap;html=1;dashed=1;" parent="1" vertex="1">
          <mxGeometry x="-630" y="803" width="170" height="280" as="geometry" />
        </mxCell>
        <mxCell id="EhgFYe17gosKgeHCHdaY-73" value="" style="rounded=0;whiteSpace=wrap;html=1;dashed=1;" parent="1" vertex="1">
          <mxGeometry x="-430" y="713" width="210" height="370" as="geometry" />
        </mxCell>
        <mxCell id="EhgFYe17gosKgeHCHdaY-77" style="edgeStyle=orthogonalEdgeStyle;rounded=0;orthogonalLoop=1;jettySize=auto;html=1;exitX=1;exitY=0.5;exitDx=0;exitDy=0;entryX=0;entryY=0.5;entryDx=0;entryDy=0;" parent="1" source="EhgFYe17gosKgeHCHdaY-53" target="EhgFYe17gosKgeHCHdaY-75" edge="1">
          <mxGeometry relative="1" as="geometry" />
        </mxCell>
        <mxCell id="EhgFYe17gosKgeHCHdaY-53" value="&lt;b&gt;数据查询&lt;/b&gt;" style="rounded=0;whiteSpace=wrap;html=1;" parent="1" vertex="1">
          <mxGeometry x="-630" y="713" width="170" height="60" as="geometry" />
        </mxCell>
        <mxCell id="EhgFYe17gosKgeHCHdaY-55" value="&lt;b&gt;数据采集&lt;/b&gt;" style="text;html=1;strokeColor=none;fillColor=none;align=center;verticalAlign=middle;whiteSpace=wrap;rounded=0;" parent="1" vertex="1">
          <mxGeometry x="-582.5" y="808" width="80" height="30" as="geometry" />
        </mxCell>
        <mxCell id="EhgFYe17gosKgeHCHdaY-84" style="edgeStyle=orthogonalEdgeStyle;rounded=0;orthogonalLoop=1;jettySize=auto;html=1;exitX=1;exitY=0.5;exitDx=0;exitDy=0;entryX=0;entryY=0.5;entryDx=0;entryDy=0;" parent="1" source="EhgFYe17gosKgeHCHdaY-56" target="EhgFYe17gosKgeHCHdaY-82" edge="1">
          <mxGeometry relative="1" as="geometry" />
        </mxCell>
        <mxCell id="EhgFYe17gosKgeHCHdaY-56" value="表增量数据变更" style="rounded=1;whiteSpace=wrap;html=1;" parent="1" vertex="1">
          <mxGeometry x="-602.5" y="1000" width="120" height="30" as="geometry" />
        </mxCell>
        <mxCell id="EhgFYe17gosKgeHCHdaY-83" style="edgeStyle=orthogonalEdgeStyle;rounded=0;orthogonalLoop=1;jettySize=auto;html=1;exitX=1;exitY=0.5;exitDx=0;exitDy=0;entryX=0;entryY=0.5;entryDx=0;entryDy=0;" parent="1" source="EhgFYe17gosKgeHCHdaY-60" target="EhgFYe17gosKgeHCHdaY-79" edge="1">
          <mxGeometry relative="1" as="geometry" />
        </mxCell>
        <mxCell id="EhgFYe17gosKgeHCHdaY-60" value="日志数据" style="rounded=1;whiteSpace=wrap;html=1;" parent="1" vertex="1">
          <mxGeometry x="-602.5" y="888" width="120" height="30" as="geometry" />
        </mxCell>
        <mxCell id="EhgFYe17gosKgeHCHdaY-81" style="edgeStyle=orthogonalEdgeStyle;rounded=0;orthogonalLoop=1;jettySize=auto;html=1;exitX=1;exitY=0.5;exitDx=0;exitDy=0;entryX=0;entryY=0.5;entryDx=0;entryDy=0;" parent="1" source="EhgFYe17gosKgeHCHdaY-61" target="EhgFYe17gosKgeHCHdaY-80" edge="1">
          <mxGeometry relative="1" as="geometry" />
        </mxCell>
        <mxCell id="EhgFYe17gosKgeHCHdaY-61" value="业务数据" style="rounded=1;whiteSpace=wrap;html=1;" parent="1" vertex="1">
          <mxGeometry x="-602.5" y="838" width="120" height="30" as="geometry" />
        </mxCell>
        <mxCell id="EhgFYe17gosKgeHCHdaY-67" value="" style="edgeStyle=orthogonalEdgeStyle;rounded=0;orthogonalLoop=1;jettySize=auto;html=1;entryX=0;entryY=0.5;entryDx=0;entryDy=0;" parent="1" source="EhgFYe17gosKgeHCHdaY-63" target="EhgFYe17gosKgeHCHdaY-53" edge="1">
          <mxGeometry relative="1" as="geometry" />
        </mxCell>
        <mxCell id="EhgFYe17gosKgeHCHdaY-63" value="user" style="shape=umlActor;verticalLabelPosition=bottom;verticalAlign=top;html=1;outlineConnect=0;" parent="1" vertex="1">
          <mxGeometry x="-810" y="713" width="30" height="60" as="geometry" />
        </mxCell>
        <mxCell id="EhgFYe17gosKgeHCHdaY-71" value="" style="edgeStyle=orthogonalEdgeStyle;rounded=0;orthogonalLoop=1;jettySize=auto;html=1;" parent="1" source="EhgFYe17gosKgeHCHdaY-64" edge="1">
          <mxGeometry relative="1" as="geometry">
            <mxPoint x="-630" y="941" as="targetPoint" />
          </mxGeometry>
        </mxCell>
        <mxCell id="EhgFYe17gosKgeHCHdaY-64" value="user" style="shape=umlActor;verticalLabelPosition=bottom;verticalAlign=top;html=1;outlineConnect=0;" parent="1" vertex="1">
          <mxGeometry x="-810" y="911" width="30" height="60" as="geometry" />
        </mxCell>
        <mxCell id="EhgFYe17gosKgeHCHdaY-101" style="edgeStyle=orthogonalEdgeStyle;rounded=0;orthogonalLoop=1;jettySize=auto;html=1;exitX=1;exitY=0.5;exitDx=0;exitDy=0;entryX=0;entryY=0.5;entryDx=0;entryDy=0;entryPerimeter=0;" parent="1" source="EhgFYe17gosKgeHCHdaY-75" target="EhgFYe17gosKgeHCHdaY-99" edge="1">
          <mxGeometry relative="1" as="geometry" />
        </mxCell>
        <mxCell id="EhgFYe17gosKgeHCHdaY-102" value="同步rest请求" style="edgeLabel;html=1;align=center;verticalAlign=middle;resizable=0;points=[];" parent="EhgFYe17gosKgeHCHdaY-101" vertex="1" connectable="0">
          <mxGeometry x="-0.2474" y="1" relative="1" as="geometry">
            <mxPoint x="28" y="-14" as="offset" />
          </mxGeometry>
        </mxCell>
        <mxCell id="EhgFYe17gosKgeHCHdaY-75" value="参数转换" style="rounded=1;whiteSpace=wrap;html=1;" parent="1" vertex="1">
          <mxGeometry x="-408" y="728" width="120" height="30" as="geometry" />
        </mxCell>
        <mxCell id="EhgFYe17gosKgeHCHdaY-78" value="&lt;b&gt;数据ETL操作&lt;/b&gt;" style="text;html=1;strokeColor=none;fillColor=none;align=center;verticalAlign=middle;whiteSpace=wrap;rounded=0;" parent="1" vertex="1">
          <mxGeometry x="-362.5" y="680" width="75" height="30" as="geometry" />
        </mxCell>
        <mxCell id="EhgFYe17gosKgeHCHdaY-87" style="edgeStyle=orthogonalEdgeStyle;rounded=0;orthogonalLoop=1;jettySize=auto;html=1;exitX=1;exitY=0.5;exitDx=0;exitDy=0;entryX=0;entryY=0.5;entryDx=0;entryDy=0;entryPerimeter=0;" parent="1" source="EhgFYe17gosKgeHCHdaY-79" target="EhgFYe17gosKgeHCHdaY-85" edge="1">
          <mxGeometry relative="1" as="geometry">
            <Array as="points">
              <mxPoint x="-190" y="903" />
              <mxPoint x="-190" y="880" />
            </Array>
          </mxGeometry>
        </mxCell>
        <mxCell id="EhgFYe17gosKgeHCHdaY-97" value="异步接入" style="edgeLabel;html=1;align=center;verticalAlign=middle;resizable=0;points=[];" parent="EhgFYe17gosKgeHCHdaY-87" vertex="1" connectable="0">
          <mxGeometry x="-0.2337" y="-4" relative="1" as="geometry">
            <mxPoint x="34" y="3" as="offset" />
          </mxGeometry>
        </mxCell>
        <mxCell id="EhgFYe17gosKgeHCHdaY-79" value="日志过滤及参数转换" style="rounded=1;whiteSpace=wrap;html=1;" parent="1" vertex="1">
          <mxGeometry x="-415.5" y="888" width="120" height="30" as="geometry" />
        </mxCell>
        <mxCell id="EhgFYe17gosKgeHCHdaY-86" style="edgeStyle=orthogonalEdgeStyle;rounded=0;orthogonalLoop=1;jettySize=auto;html=1;exitX=1;exitY=0.5;exitDx=0;exitDy=0;entryX=0;entryY=0.5;entryDx=0;entryDy=0;entryPerimeter=0;" parent="1" source="EhgFYe17gosKgeHCHdaY-80" target="EhgFYe17gosKgeHCHdaY-85" edge="1">
          <mxGeometry relative="1" as="geometry">
            <Array as="points">
              <mxPoint x="-190" y="853" />
              <mxPoint x="-190" y="880" />
            </Array>
          </mxGeometry>
        </mxCell>
        <mxCell id="EhgFYe17gosKgeHCHdaY-103" style="edgeStyle=orthogonalEdgeStyle;rounded=0;orthogonalLoop=1;jettySize=auto;html=1;exitX=1;exitY=0.5;exitDx=0;exitDy=0;" parent="1" source="EhgFYe17gosKgeHCHdaY-80" edge="1">
          <mxGeometry relative="1" as="geometry">
            <mxPoint x="-77" y="773" as="targetPoint" />
            <Array as="points">
              <mxPoint x="-230" y="853" />
              <mxPoint x="-230" y="793" />
              <mxPoint x="-78" y="793" />
            </Array>
          </mxGeometry>
        </mxCell>
        <mxCell id="EhgFYe17gosKgeHCHdaY-104" value="同步rest请求" style="edgeLabel;html=1;align=center;verticalAlign=middle;resizable=0;points=[];" parent="EhgFYe17gosKgeHCHdaY-103" vertex="1" connectable="0">
          <mxGeometry x="-0.0105" y="1" relative="1" as="geometry">
            <mxPoint x="54" as="offset" />
          </mxGeometry>
        </mxCell>
        <mxCell id="EhgFYe17gosKgeHCHdaY-80" value="数据自定义清洗" style="rounded=1;whiteSpace=wrap;html=1;" parent="1" vertex="1">
          <mxGeometry x="-416.5" y="838" width="120" height="30" as="geometry" />
        </mxCell>
        <mxCell id="EhgFYe17gosKgeHCHdaY-96" style="edgeStyle=orthogonalEdgeStyle;rounded=0;orthogonalLoop=1;jettySize=auto;html=1;exitX=1;exitY=0.5;exitDx=0;exitDy=0;entryX=0;entryY=0.5;entryDx=0;entryDy=0;" parent="1" source="EhgFYe17gosKgeHCHdaY-82" target="EhgFYe17gosKgeHCHdaY-91" edge="1">
          <mxGeometry relative="1" as="geometry" />
        </mxCell>
        <mxCell id="EhgFYe17gosKgeHCHdaY-82" value="表增量数据预处理" style="rounded=1;whiteSpace=wrap;html=1;" parent="1" vertex="1">
          <mxGeometry x="-405.5" y="1000" width="120" height="30" as="geometry" />
        </mxCell>
        <mxCell id="EhgFYe17gosKgeHCHdaY-118" style="edgeStyle=orthogonalEdgeStyle;rounded=0;orthogonalLoop=1;jettySize=auto;html=1;exitX=1;exitY=0.5;exitDx=0;exitDy=0;exitPerimeter=0;" parent="1" source="EhgFYe17gosKgeHCHdaY-85" edge="1">
          <mxGeometry relative="1" as="geometry">
            <mxPoint x="140" y="850" as="targetPoint" />
            <Array as="points">
              <mxPoint x="140" y="880" />
            </Array>
          </mxGeometry>
        </mxCell>
        <mxCell id="EhgFYe17gosKgeHCHdaY-119" style="edgeStyle=orthogonalEdgeStyle;rounded=0;orthogonalLoop=1;jettySize=auto;html=1;exitX=1;exitY=0.5;exitDx=0;exitDy=0;exitPerimeter=0;entryX=0.5;entryY=1;entryDx=0;entryDy=0;" parent="1" source="EhgFYe17gosKgeHCHdaY-85" target="EhgFYe17gosKgeHCHdaY-116" edge="1">
          <mxGeometry relative="1" as="geometry" />
        </mxCell>
        <mxCell id="EhgFYe17gosKgeHCHdaY-85" value="消息队列" style="strokeWidth=2;html=1;shape=mxgraph.flowchart.direct_data;whiteSpace=wrap;" parent="1" vertex="1">
          <mxGeometry x="-130" y="850" width="120" height="60" as="geometry" />
        </mxCell>
        <mxCell id="EhgFYe17gosKgeHCHdaY-88" value="&lt;b&gt;按topic区分不同数据&lt;/b&gt;" style="text;html=1;strokeColor=none;fillColor=none;align=center;verticalAlign=middle;whiteSpace=wrap;rounded=0;" parent="1" vertex="1">
          <mxGeometry x="-107.5" y="820" width="65" height="30" as="geometry" />
        </mxCell>
        <mxCell id="EhgFYe17gosKgeHCHdaY-111" style="edgeStyle=orthogonalEdgeStyle;rounded=0;orthogonalLoop=1;jettySize=auto;html=1;exitX=0.5;exitY=1;exitDx=0;exitDy=0;dashed=1;strokeWidth=2;" parent="1" source="EhgFYe17gosKgeHCHdaY-91" target="EhgFYe17gosKgeHCHdaY-110" edge="1">
          <mxGeometry relative="1" as="geometry">
            <mxPoint x="-75" y="1093" as="targetPoint" />
          </mxGeometry>
        </mxCell>
        <mxCell id="EhgFYe17gosKgeHCHdaY-140" style="edgeStyle=orthogonalEdgeStyle;rounded=0;orthogonalLoop=1;jettySize=auto;html=1;exitX=1;exitY=0.5;exitDx=0;exitDy=0;entryX=-0.001;entryY=0.661;entryDx=0;entryDy=0;entryPerimeter=0;" parent="1" source="EhgFYe17gosKgeHCHdaY-91" target="EhgFYe17gosKgeHCHdaY-126" edge="1">
          <mxGeometry relative="1" as="geometry" />
        </mxCell>
        <mxCell id="EhgFYe17gosKgeHCHdaY-91" value="&lt;b&gt;增量消息监听组件&lt;/b&gt;" style="shape=process;whiteSpace=wrap;html=1;backgroundOutline=1;" parent="1" vertex="1">
          <mxGeometry x="-140" y="977" width="130" height="76" as="geometry" />
        </mxCell>
        <mxCell id="EhgFYe17gosKgeHCHdaY-92" value="数据变更捕获（CDC）" style="text;html=1;strokeColor=none;fillColor=none;align=center;verticalAlign=middle;whiteSpace=wrap;rounded=0;fontStyle=1" parent="1" vertex="1">
          <mxGeometry x="-137.5" y="940" width="127.5" height="30" as="geometry" />
        </mxCell>
        <mxCell id="EhgFYe17gosKgeHCHdaY-99" value="ElasticSearch" style="strokeWidth=2;html=1;shape=mxgraph.flowchart.multi-document;whiteSpace=wrap;" parent="1" vertex="1">
          <mxGeometry x="-131.5" y="713" width="118" height="60" as="geometry" />
        </mxCell>
        <mxCell id="EhgFYe17gosKgeHCHdaY-106" value="异步接入" style="text;html=1;strokeColor=none;fillColor=none;align=center;verticalAlign=middle;whiteSpace=wrap;rounded=0;" parent="1" vertex="1">
          <mxGeometry x="-220" y="829" width="60" height="30" as="geometry" />
        </mxCell>
        <mxCell id="EhgFYe17gosKgeHCHdaY-149" style="edgeStyle=orthogonalEdgeStyle;rounded=0;orthogonalLoop=1;jettySize=auto;html=1;exitX=0;exitY=0.5;exitDx=0;exitDy=0;" parent="1" source="EhgFYe17gosKgeHCHdaY-108" edge="1">
          <mxGeometry relative="1" as="geometry">
            <mxPoint x="-10" y="742" as="targetPoint" />
          </mxGeometry>
        </mxCell>
        <mxCell id="EhgFYe17gosKgeHCHdaY-108" value="" style="rounded=1;whiteSpace=wrap;html=1;" parent="1" vertex="1">
          <mxGeometry x="70" y="720" width="300" height="43" as="geometry" />
        </mxCell>
        <mxCell id="EhgFYe17gosKgeHCHdaY-110" value="&lt;b&gt;监听数据库消息变更，提供&lt;br&gt;全量、增量同步。完成数据库&lt;br&gt;数据与ES同步&lt;/b&gt;" style="ellipse;shape=cloud;whiteSpace=wrap;html=1;" parent="1" vertex="1">
          <mxGeometry x="-175" y="1133" width="200" height="100" as="geometry" />
        </mxCell>
        <mxCell id="EhgFYe17gosKgeHCHdaY-137" style="edgeStyle=orthogonalEdgeStyle;rounded=0;orthogonalLoop=1;jettySize=auto;html=1;exitX=0.5;exitY=0;exitDx=0;exitDy=0;entryX=0.5;entryY=1;entryDx=0;entryDy=0;" parent="1" source="EhgFYe17gosKgeHCHdaY-113" edge="1">
          <mxGeometry relative="1" as="geometry">
            <mxPoint x="218" y="763" as="targetPoint" />
            <Array as="points">
              <mxPoint x="141" y="808" />
              <mxPoint x="141" y="790" />
              <mxPoint x="218" y="790" />
            </Array>
          </mxGeometry>
        </mxCell>
        <mxCell id="EhgFYe17gosKgeHCHdaY-113" value="业务数据" style="rounded=1;whiteSpace=wrap;html=1;" parent="1" vertex="1">
          <mxGeometry x="70" y="808" width="110" height="40" as="geometry" />
        </mxCell>
        <mxCell id="EhgFYe17gosKgeHCHdaY-139" style="edgeStyle=orthogonalEdgeStyle;rounded=0;orthogonalLoop=1;jettySize=auto;html=1;exitX=0.5;exitY=0;exitDx=0;exitDy=0;entryX=0.5;entryY=1;entryDx=0;entryDy=0;" parent="1" source="EhgFYe17gosKgeHCHdaY-116" edge="1">
          <mxGeometry relative="1" as="geometry">
            <mxPoint x="218" y="763" as="targetPoint" />
            <Array as="points">
              <mxPoint x="315" y="790" />
              <mxPoint x="218" y="790" />
            </Array>
          </mxGeometry>
        </mxCell>
        <mxCell id="EhgFYe17gosKgeHCHdaY-116" value="日志数据" style="rounded=1;whiteSpace=wrap;html=1;" parent="1" vertex="1">
          <mxGeometry x="260" y="808" width="110" height="40" as="geometry" />
        </mxCell>
        <mxCell id="EhgFYe17gosKgeHCHdaY-120" value="&lt;b&gt;实时计算引擎&lt;/b&gt;" style="text;html=1;strokeColor=none;fillColor=none;align=center;verticalAlign=middle;whiteSpace=wrap;rounded=0;" parent="1" vertex="1">
          <mxGeometry x="177.5" y="683" width="75" height="30" as="geometry" />
        </mxCell>
        <mxCell id="EhgFYe17gosKgeHCHdaY-122" value="listen" style="text;html=1;strokeColor=none;fillColor=none;align=center;verticalAlign=middle;whiteSpace=wrap;rounded=0;" parent="1" vertex="1">
          <mxGeometry x="285" y="850" width="60" height="30" as="geometry" />
        </mxCell>
        <mxCell id="EhgFYe17gosKgeHCHdaY-126" value="流数据计算" style="swimlane;startSize=20;horizontal=0;childLayout=treeLayout;horizontalTree=1;resizable=0;containerType=tree;fontSize=11;container=0;fillColor=#ffe6cc;strokeColor=#d79b00;" parent="1" vertex="1">
          <mxGeometry x="60" y="909.5" width="310" height="160" as="geometry" />
        </mxCell>
        <mxCell id="EhgFYe17gosKgeHCHdaY-127" value="增量消息" style="whiteSpace=wrap;html=1;" parent="1" vertex="1">
          <mxGeometry x="90" y="975" width="100" height="40" as="geometry" />
        </mxCell>
        <mxCell id="EhgFYe17gosKgeHCHdaY-172" style="edgeStyle=orthogonalEdgeStyle;rounded=0;orthogonalLoop=1;jettySize=auto;html=1;exitX=1;exitY=0.25;exitDx=0;exitDy=0;entryX=0;entryY=0.5;entryDx=0;entryDy=0;entryPerimeter=0;" parent="1" source="EhgFYe17gosKgeHCHdaY-128" target="EhgFYe17gosKgeHCHdaY-170" edge="1">
          <mxGeometry relative="1" as="geometry">
            <Array as="points">
              <mxPoint x="340" y="950" />
              <mxPoint x="360" y="950" />
              <mxPoint x="360" y="992" />
            </Array>
          </mxGeometry>
        </mxCell>
        <mxCell id="EhgFYe17gosKgeHCHdaY-128" value="实时运算" style="whiteSpace=wrap;html=1;" parent="1" vertex="1">
          <mxGeometry x="240" y="935" width="100" height="40" as="geometry" />
        </mxCell>
        <mxCell id="EhgFYe17gosKgeHCHdaY-129" value="" style="edgeStyle=elbowEdgeStyle;elbow=vertical;html=1;rounded=1;curved=0;sourcePerimeterSpacing=0;targetPerimeterSpacing=0;startSize=6;endSize=6;" parent="1" source="EhgFYe17gosKgeHCHdaY-127" target="EhgFYe17gosKgeHCHdaY-128" edge="1">
          <mxGeometry relative="1" as="geometry" />
        </mxCell>
        <mxCell id="EhgFYe17gosKgeHCHdaY-171" style="edgeStyle=orthogonalEdgeStyle;rounded=0;orthogonalLoop=1;jettySize=auto;html=1;exitX=1;exitY=0.5;exitDx=0;exitDy=0;entryX=0;entryY=0.5;entryDx=0;entryDy=0;entryPerimeter=0;" parent="1" source="EhgFYe17gosKgeHCHdaY-130" target="EhgFYe17gosKgeHCHdaY-170" edge="1">
          <mxGeometry relative="1" as="geometry">
            <Array as="points">
              <mxPoint x="360" y="1035" />
              <mxPoint x="360" y="992" />
            </Array>
          </mxGeometry>
        </mxCell>
        <mxCell id="EhgFYe17gosKgeHCHdaY-130" value="多表数据关联" style="whiteSpace=wrap;html=1;" parent="1" vertex="1">
          <mxGeometry x="240" y="1015" width="100" height="40" as="geometry" />
        </mxCell>
        <mxCell id="EhgFYe17gosKgeHCHdaY-131" value="" style="edgeStyle=elbowEdgeStyle;elbow=vertical;html=1;rounded=1;curved=0;sourcePerimeterSpacing=0;targetPerimeterSpacing=0;startSize=6;endSize=6;" parent="1" source="EhgFYe17gosKgeHCHdaY-127" target="EhgFYe17gosKgeHCHdaY-130" edge="1">
          <mxGeometry relative="1" as="geometry" />
        </mxCell>
        <mxCell id="EhgFYe17gosKgeHCHdaY-159" style="edgeStyle=orthogonalEdgeStyle;rounded=0;orthogonalLoop=1;jettySize=auto;html=1;exitX=0.5;exitY=0;exitDx=0;exitDy=0;exitPerimeter=0;entryX=0.55;entryY=0.95;entryDx=0;entryDy=0;entryPerimeter=0;" parent="1" source="EhgFYe17gosKgeHCHdaY-141" target="EhgFYe17gosKgeHCHdaY-150" edge="1">
          <mxGeometry relative="1" as="geometry" />
        </mxCell>
        <mxCell id="EhgFYe17gosKgeHCHdaY-141" value="ElasticSearch" style="strokeWidth=2;html=1;shape=mxgraph.flowchart.multi-document;whiteSpace=wrap;" parent="1" vertex="1">
          <mxGeometry x="575" y="962" width="118" height="60" as="geometry" />
        </mxCell>
        <mxCell id="EhgFYe17gosKgeHCHdaY-161" style="edgeStyle=orthogonalEdgeStyle;rounded=0;orthogonalLoop=1;jettySize=auto;html=1;exitX=0.518;exitY=0.121;exitDx=0;exitDy=0;exitPerimeter=0;" parent="1" source="EhgFYe17gosKgeHCHdaY-150" target="EhgFYe17gosKgeHCHdaY-153" edge="1">
          <mxGeometry relative="1" as="geometry" />
        </mxCell>
        <mxCell id="EhgFYe17gosKgeHCHdaY-162" style="edgeStyle=orthogonalEdgeStyle;rounded=0;orthogonalLoop=1;jettySize=auto;html=1;exitX=0.518;exitY=0.129;exitDx=0;exitDy=0;exitPerimeter=0;entryX=0.5;entryY=1;entryDx=0;entryDy=0;" parent="1" source="EhgFYe17gosKgeHCHdaY-150" target="EhgFYe17gosKgeHCHdaY-158" edge="1">
          <mxGeometry relative="1" as="geometry" />
        </mxCell>
        <mxCell id="EhgFYe17gosKgeHCHdaY-150" value="数据管道，开放采集数据。如logstash等" style="ellipse;shape=cloud;whiteSpace=wrap;html=1;" parent="1" vertex="1">
          <mxGeometry x="559" y="860" width="150" height="80" as="geometry" />
        </mxCell>
        <mxCell id="EhgFYe17gosKgeHCHdaY-153" value="DB" style="shape=datastore;whiteSpace=wrap;html=1;" parent="1" vertex="1">
          <mxGeometry x="523" y="719" width="88" height="59.5" as="geometry" />
        </mxCell>
        <mxCell id="EhgFYe17gosKgeHCHdaY-155" value="" style="shape=waypoint;sketch=0;fillStyle=solid;size=6;pointerEvents=1;points=[];fillColor=none;resizable=0;rotatable=0;perimeter=centerPerimeter;snapToPoint=1;" parent="1" vertex="1">
          <mxGeometry x="637" y="730" width="20" height="20" as="geometry" />
        </mxCell>
        <mxCell id="EhgFYe17gosKgeHCHdaY-156" value="" style="shape=waypoint;sketch=0;fillStyle=solid;size=6;pointerEvents=1;points=[];fillColor=none;resizable=0;rotatable=0;perimeter=centerPerimeter;snapToPoint=1;" parent="1" vertex="1">
          <mxGeometry x="624" y="730" width="20" height="20" as="geometry" />
        </mxCell>
        <mxCell id="EhgFYe17gosKgeHCHdaY-157" value="" style="shape=waypoint;sketch=0;fillStyle=solid;size=6;pointerEvents=1;points=[];fillColor=none;resizable=0;rotatable=0;perimeter=centerPerimeter;snapToPoint=1;" parent="1" vertex="1">
          <mxGeometry x="611" y="730" width="20" height="20" as="geometry" />
        </mxCell>
        <mxCell id="EhgFYe17gosKgeHCHdaY-158" value="kibana" style="shape=datastore;whiteSpace=wrap;html=1;" parent="1" vertex="1">
          <mxGeometry x="657" y="719.5" width="88" height="59.5" as="geometry" />
        </mxCell>
        <mxCell id="EhgFYe17gosKgeHCHdaY-164" value="&lt;p id=&quot;20230417003337-ht1p8pf&quot;&gt;数据开放及持久化&lt;/p&gt;" style="text;html=1;strokeColor=none;fillColor=none;align=center;verticalAlign=middle;whiteSpace=wrap;rounded=0;fontStyle=1" parent="1" vertex="1">
          <mxGeometry x="577" y="680" width="110" height="30" as="geometry" />
        </mxCell>
        <mxCell id="EhgFYe17gosKgeHCHdaY-166" value="请求" style="text;html=1;strokeColor=none;fillColor=none;align=center;verticalAlign=middle;whiteSpace=wrap;rounded=0;" parent="1" vertex="1">
          <mxGeometry x="-740" y="713" width="60" height="30" as="geometry" />
        </mxCell>
        <mxCell id="EhgFYe17gosKgeHCHdaY-167" value="请求" style="text;html=1;strokeColor=none;fillColor=none;align=center;verticalAlign=middle;whiteSpace=wrap;rounded=0;" parent="1" vertex="1">
          <mxGeometry x="-740" y="911" width="60" height="30" as="geometry" />
        </mxCell>
        <mxCell id="EhgFYe17gosKgeHCHdaY-173" style="edgeStyle=orthogonalEdgeStyle;rounded=0;orthogonalLoop=1;jettySize=auto;html=1;exitX=1;exitY=0.5;exitDx=0;exitDy=0;exitPerimeter=0;entryX=0;entryY=0.5;entryDx=0;entryDy=0;entryPerimeter=0;dashed=1;strokeWidth=2;" parent="1" source="EhgFYe17gosKgeHCHdaY-170" target="EhgFYe17gosKgeHCHdaY-141" edge="1">
          <mxGeometry relative="1" as="geometry" />
        </mxCell>
        <mxCell id="EhgFYe17gosKgeHCHdaY-170" value="消息队列" style="strokeWidth=2;html=1;shape=mxgraph.flowchart.direct_data;whiteSpace=wrap;" parent="1" vertex="1">
          <mxGeometry x="420" y="962" width="80" height="60" as="geometry" />
        </mxCell>
        <mxCell id="EhgFYe17gosKgeHCHdaY-174" value="listen" style="text;html=1;strokeColor=none;fillColor=none;align=center;verticalAlign=middle;whiteSpace=wrap;rounded=0;" parent="1" vertex="1">
          <mxGeometry x="505" y="962" width="60" height="30" as="geometry" />
        </mxCell>
        <mxCell id="kArv2RkH6kSaskJljryi-1" value="&lt;b&gt;数据后置处理&lt;/b&gt;" style="text;html=1;strokeColor=none;fillColor=none;align=center;verticalAlign=middle;whiteSpace=wrap;rounded=0;" vertex="1" parent="1">
          <mxGeometry x="60" y="758" width="100" height="30" as="geometry" />
        </mxCell>
        <mxCell id="kArv2RkH6kSaskJljryi-7" value="listen" style="text;html=1;strokeColor=none;fillColor=none;align=center;verticalAlign=middle;whiteSpace=wrap;rounded=0;" vertex="1" parent="1">
          <mxGeometry x="110" y="848" width="60" height="30" as="geometry" />
        </mxCell>
        <mxCell id="kArv2RkH6kSaskJljryi-9" value="&lt;b&gt;ES关联查询&lt;/b&gt;" style="rounded=1;whiteSpace=wrap;html=1;fillColor=#dae8fc;strokeColor=#6c8ebf;" vertex="1" parent="1">
          <mxGeometry x="80" y="726.5" width="120" height="30" as="geometry" />
        </mxCell>
        <mxCell id="kArv2RkH6kSaskJljryi-14" style="edgeStyle=orthogonalEdgeStyle;rounded=0;orthogonalLoop=1;jettySize=auto;html=1;exitX=1;exitY=0.5;exitDx=0;exitDy=0;dashed=1;strokeWidth=2;" edge="1" parent="1" source="kArv2RkH6kSaskJljryi-11">
          <mxGeometry relative="1" as="geometry">
            <mxPoint x="520" y="742" as="targetPoint" />
          </mxGeometry>
        </mxCell>
        <mxCell id="kArv2RkH6kSaskJljryi-11" value="&lt;b&gt;DB关联查询&lt;/b&gt;" style="rounded=1;whiteSpace=wrap;html=1;fillColor=#d5e8d4;strokeColor=#82b366;" vertex="1" parent="1">
          <mxGeometry x="240" y="726.5" width="120" height="30" as="geometry" />
        </mxCell>
        <mxCell id="kArv2RkH6kSaskJljryi-18" value="" style="rounded=0;whiteSpace=wrap;html=1;dashed=1;" vertex="1" parent="1">
          <mxGeometry x="-288" y="773" width="50" height="212.5" as="geometry" />
        </mxCell>
        <mxCell id="kArv2RkH6kSaskJljryi-15" value="查询" style="text;html=1;align=center;verticalAlign=middle;resizable=0;points=[];autosize=1;strokeColor=none;fillColor=none;" vertex="1" parent="1">
          <mxGeometry x="415" y="715" width="50" height="30" as="geometry" />
        </mxCell>
        <mxCell id="kArv2RkH6kSaskJljryi-17" value="&lt;b&gt;DB关联查询&lt;/b&gt;" style="rounded=0;whiteSpace=wrap;html=1;rotation=90;fillColor=#d5e8d4;strokeColor=#82b366;" vertex="1" parent="1">
          <mxGeometry x="-354" y="868" width="183" height="30" as="geometry" />
        </mxCell>
        <mxCell id="kArv2RkH6kSaskJljryi-19" value="&lt;b&gt;关联数据库做多表关联查询&lt;/b&gt;" style="text;html=1;strokeColor=none;fillColor=none;align=center;verticalAlign=middle;whiteSpace=wrap;rounded=0;" vertex="1" parent="1">
          <mxGeometry x="-368" y="788" width="80" height="30" as="geometry" />
        </mxCell>
      </root>
    </mxGraphModel>
  </diagram>
</mxfile>
